<svg width="16" height="16" viewBox="0 0 16 16" fill="none" xmlns="http://www.w3.org/2000/svg">
<path fill-rule="evenodd" clip-rule="evenodd" d="M8 0C12.4183 0 16 3.58172 16 8C16 12.4183 12.4183 16 8 16C3.58172 16 0 12.4183 0 8C0 3.58172 3.58172 0 8 0ZM8.65723 3.70703C8.2667 3.31651 7.63271 3.31651 7.24219 3.70703L3.70703 7.24219C3.31651 7.63271 3.31651 8.2667 3.70703 8.65723L7.24219 12.1924C7.63271 12.5829 8.2667 12.5829 8.65723 12.1924L12.1924 8.65723C12.5829 8.2667 12.5829 7.63271 12.1924 7.24219L8.65723 3.70703Z" fill="#116964"/>
</svg>
