<svg width="16" height="16" viewBox="0 0 16 16" fill="none" xmlns="http://www.w3.org/2000/svg">
<path fill-rule="evenodd" clip-rule="evenodd" d="M8 0C12.4183 0 16 3.58172 16 8C16 12.4183 12.4183 16 8 16C3.58172 16 0 12.4183 0 8C0 3.58172 3.58172 0 8 0ZM9.8125 6C9.75516 5.99932 9.69766 6.00866 9.64453 6.02832C9.59153 6.04796 9.54343 6.07745 9.50293 6.11426C9.46237 6.15116 9.42984 6.19579 9.4082 6.24414C9.38672 6.29235 9.37627 6.34446 9.37695 6.39648C9.3777 6.44857 9.39023 6.5001 9.41309 6.54785C9.43599 6.59563 9.46928 6.63885 9.51074 6.6748L10.5479 7.61816H7.96191C7.78356 6.69641 6.97386 6 6 6C4.8955 6.00005 4.00002 6.89549 4 8C4.00002 9.10451 4.8955 9.99995 6 10C6.96702 10 7.77308 9.31347 7.95898 8.40137H10.5381L9.51074 9.33887C9.43358 9.4128 9.39123 9.5113 9.39258 9.61328C9.39403 9.71538 9.43923 9.81357 9.51855 9.88574C9.59777 9.95761 9.70458 9.9987 9.81641 10C9.92854 10.0012 10.0369 9.96201 10.1182 9.8916L11.874 8.29297C11.9139 8.25677 11.9462 8.21342 11.9678 8.16602C11.9892 8.11867 12.0002 8.06782 12 8.0166V7.99707C11.9999 7.89341 11.9544 7.7941 11.874 7.7207L10.1182 6.12207C10.0787 6.08422 10.0311 6.05411 9.97852 6.0332C9.92605 6.01235 9.86974 6.0007 9.8125 6Z" fill="#9C4E78"/>
</svg>
